<svg 
 xmlns="http://www.w3.org/2000/svg"
 xmlns:xlink="http://www.w3.org/1999/xlink"
 width="49px" height="41px" viewBox="0 0 49 41">
<path fill-rule="evenodd"  fill="rgb(232, 102, 60)"
 d="M48.190,9.146 L40.457,1.414 C39.558,0.515 38.101,0.515 37.201,1.414 L19.079,19.536 L11.662,12.119 C10.763,11.220 9.305,11.220 8.406,12.119 L0.674,19.852 C-0.225,20.750 -0.225,22.208 0.674,23.107 L9.416,31.850 C9.497,31.967 9.588,32.078 9.690,32.181 L17.423,39.913 C17.854,40.345 18.440,40.587 19.051,40.587 C19.661,40.587 20.247,40.345 20.679,39.913 L48.190,12.402 C48.621,11.970 48.864,11.385 48.864,10.774 C48.864,10.163 48.621,9.578 48.190,9.146 Z"/>
</svg>