<svg 
 xmlns="http://www.w3.org/2000/svg"
 xmlns:xlink="http://www.w3.org/1999/xlink"
 width="46px" height="46px" viewBox="0 0 46 46">
<path fill-rule="evenodd"  fill="rgb(232, 102, 60)"
 d="M45.988,25.932 L45.988,20.047 L41.073,19.654 C40.895,18.685 40.644,17.744 40.321,16.834 L44.379,14.038 L41.436,8.942 L36.980,11.060 C36.347,10.319 35.659,9.631 34.919,8.999 L37.037,4.543 L31.941,1.600 L29.144,5.658 C28.235,5.335 27.292,5.084 26.324,4.906 L25.930,-0.009 L20.046,-0.009 L19.653,4.906 C18.684,5.084 17.742,5.335 16.832,5.658 L14.036,1.601 L8.940,4.543 L11.058,8.999 C10.317,9.631 9.628,10.319 8.996,11.060 L4.541,8.943 L1.599,14.038 L5.656,16.834 C5.333,17.744 5.082,18.686 4.904,19.655 L-0.012,20.048 L-0.011,25.932 L4.904,26.326 C5.082,27.294 5.333,28.237 5.656,29.146 L1.600,31.943 L4.542,37.037 L8.996,34.921 C9.629,35.661 10.318,36.350 11.059,36.982 L8.941,41.438 L14.037,44.379 L16.833,40.323 C17.742,40.645 18.684,40.897 19.653,41.075 L20.046,45.990 L25.931,45.990 L26.324,41.075 C27.293,40.897 28.235,40.645 29.144,40.322 L31.941,44.379 L37.037,41.438 L34.919,36.981 C35.659,36.349 36.348,35.661 36.980,34.920 L41.436,37.037 L44.379,31.942 L40.321,29.146 C40.644,28.236 40.895,27.294 41.073,26.326 L45.988,25.932 ZM22.988,34.490 C16.637,34.490 11.488,29.341 11.488,22.990 C11.488,16.638 16.637,11.490 22.988,11.490 C29.340,11.490 34.488,16.638 34.488,22.990 C34.488,29.341 29.340,34.490 22.988,34.490 Z"/>
</svg>