<?xml version="1.0" encoding="UTF-8"?><!DOCTYPE svg PUBLIC "-//W3C//DTD SVG 1.1//EN" "http://www.w3.org/Graphics/SVG/1.1/DTD/svg11.dtd"><svg xmlns="http://www.w3.org/2000/svg"><symbol id="icon-arrow" viewBox="0 0 36 52">
    <path fill-rule="evenodd" opacity=".902" d="M25.836-.001L.014 26l25.822 26.001 9.631-9.565L19.145 26 35.467 9.564 25.836-.001z"/>
</symbol><symbol id="icon-check" viewBox="0 0 49 41">
    <path fill-rule="evenodd" d="M48.19 9.146l-7.733-7.732a2.303 2.303 0 0 0-3.256 0L19.079 19.536l-7.417-7.417a2.303 2.303 0 0 0-3.256 0L.674 19.852a2.301 2.301 0 0 0 0 3.255l8.742 8.743c.081.117.172.228.274.331l7.733 7.732a2.3 2.3 0 0 0 3.256 0L48.19 12.402a2.305 2.305 0 0 0 0-3.256z"/>
</symbol><symbol id="icon-cog" viewBox="0 0 46 46">
    <path fill-rule="evenodd" d="M45.988 25.932v-5.885l-4.915-.393a18.31 18.31 0 0 0-.752-2.82l4.058-2.796-2.943-5.096-4.456 2.118a18.57 18.57 0 0 0-2.061-2.061l2.118-4.456L31.941 1.6l-2.797 4.058a18.31 18.31 0 0 0-2.82-.752L25.93-.009h-5.884l-.393 4.915c-.969.178-1.911.429-2.821.752l-2.796-4.057L8.94 4.543l2.118 4.456c-.741.632-1.43 1.32-2.062 2.061L4.541 8.943l-2.942 5.095 4.057 2.796c-.323.91-.574 1.852-.752 2.821l-4.916.393.001 5.884 4.915.394c.178.968.429 1.911.752 2.82L1.6 31.943l2.942 5.094 4.454-2.116c.633.74 1.322 1.429 2.063 2.061l-2.118 4.456 5.096 2.941 2.796-4.056c.909.322 1.851.574 2.82.752l.393 4.915h5.885l.393-4.915c.969-.178 1.911-.43 2.82-.753l2.797 4.057 5.096-2.941-2.118-4.457c.74-.632 1.429-1.32 2.061-2.061l4.456 2.117 2.943-5.095-4.058-2.796c.323-.91.574-1.852.752-2.82l4.915-.394zm-23 8.558c-6.351 0-11.5-5.149-11.5-11.5 0-6.352 5.149-11.5 11.5-11.5 6.352 0 11.5 5.148 11.5 11.5 0 6.351-5.148 11.5-11.5 11.5z"/>
</symbol><symbol id="icon-facebook" viewBox="0 0 10 19">
    <title>
        facebook
    </title>
    <path d="M9.766.157v2.946H8.014c-.64 0-1.071.134-1.295.402-.223.268-.335.67-.335 1.205v2.11h3.27l-.435 3.303H6.384v8.471H2.97v-8.47H.123V6.82H2.97V4.387c0-1.384.387-2.457 1.161-3.22C4.904.404 5.934.023 7.222.023c1.093 0 1.941.045 2.544.134z" fill-rule="evenodd"/>
</symbol><symbol id="icon-user" viewBox="0 0 42 40">
    <path fill-rule="evenodd" d="M27.805 22.076a12.212 12.212 0 0 0 4.963-9.837c0-6.756-5.475-12.232-12.231-12.232-6.755 0-12.231 5.476-12.231 12.232 0 4.032 1.952 7.609 4.962 9.837C5.512 24.814-.003 31.801-.003 39.993h41.079c0-8.192-5.515-15.179-13.271-17.917z"/>
</symbol></svg>